<svg width="540" height="224" viewBox="0 0 540 224" fill="none" xmlns="http://www.w3.org/2000/svg">
<path d="M167.696 143.692V183.077H144.619V219.692H101.848V183.077H0V143.692L71.6939 4.30769H117.233L45.8471 143.692H101.848V92.6154H144.619V143.692H167.696Z" fill="#444444"/>
<path d="M268.953 224C242.081 224 220.952 213.846 205.567 193.538C190.387 173.026 182.797 145.846 182.797 112C182.797 78.1539 190.387 51.0769 205.567 30.7692C220.952 10.2564 242.081 0 268.953 0C296.031 0 317.159 10.2564 332.339 30.7692C347.519 51.0769 355.109 78.1539 355.109 112C355.109 145.846 347.519 173.026 332.339 193.538C317.159 213.846 296.031 224 268.953 224ZM236.337 164.615C243.722 176.513 254.594 182.462 268.953 182.462C283.312 182.462 294.184 176.41 301.569 164.308C309.159 152.205 312.954 134.769 312.954 112C312.954 89.0257 309.159 71.4872 301.569 59.3846C294.184 47.2821 283.312 41.2308 268.953 41.2308C254.594 41.2308 243.722 47.2821 236.337 59.3846C228.952 71.4872 225.26 89.0257 225.26 112C225.26 134.974 228.952 152.513 236.337 164.615Z" fill="#444444"/>
<path d="M540 143.692V183.077H516.923V219.692H474.152V183.077H372.304V143.692L443.998 4.30769H489.537L418.151 143.692H474.152V92.6154H516.923V143.692H540Z" fill="#444444"/>
</svg>
