<svg width="21" height="16" viewBox="0 0 21 16" fill="none" xmlns="http://www.w3.org/2000/svg">
<path d="M12 16C13.1046 16 14 15.1046 14 14C14 12.8954 13.1046 12 12 12C10.8954 12 10 12.8954 10 14C10 15.1046 10.8954 16 12 16Z" fill="white"/>
<path d="M3 8C4.65685 8 6 6.65685 6 5C6 3.34315 4.65685 2 3 2C1.34315 2 0 3.34315 0 5C0 6.65685 1.34315 8 3 8Z" fill="white"/>
<path d="M6.5 14C7.88071 14 9 12.8807 9 11.5C9 10.1193 7.88071 9 6.5 9C5.11929 9 4 10.1193 4 11.5C4 12.8807 5.11929 14 6.5 14Z" fill="white"/>
<path d="M17.5 0C17.7761 0 18 0.223858 18 0.5C18 0.776142 17.7761 1 17.5 1C17.2239 1 17 0.776142 17 0.5C17 0.223858 17.2239 0 17.5 0Z" fill="white"/>
<path d="M20 7C20.5523 7 21 6.55228 21 6C21 5.44772 20.5523 5 20 5C19.4477 5 19 5.44772 19 6C19 6.55228 19.4477 7 20 7Z" fill="white"/>
<path d="M17.5 13C18.3284 13 19 12.3284 19 11.5C19 10.6716 18.3284 10 17.5 10C16.6716 10 16 10.6716 16 11.5C16 12.3284 16.6716 13 17.5 13Z" fill="white"/>
</svg>
