<svg width="21" height="21" viewBox="0 0 21 21" fill="none" xmlns="http://www.w3.org/2000/svg">
<path d="M19.71 13.58L15.19 9.07001C15.2846 8.60938 15.3315 8.14024 15.33 7.67001C15.3296 6.38066 15.0042 5.1122 14.3839 3.98189C13.7636 2.85158 12.8683 1.89588 11.7809 1.20315C10.6934 0.510412 9.44888 0.102991 8.1623 0.0185453C6.87572 -0.0659009 5.58862 0.175352 4.41995 0.720005C4.27189 0.787643 4.14258 0.890404 4.04324 1.01936C3.94391 1.14832 3.87756 1.29958 3.84995 1.46001C3.82246 1.61839 3.83355 1.78107 3.88229 1.93426C3.93103 2.08745 4.01599 2.22663 4.12995 2.34001L8.47995 6.68001L6.67995 8.48001L2.33995 4.13001C2.22562 4.01781 2.08601 3.93472 1.93287 3.88773C1.77972 3.84075 1.61754 3.83124 1.45995 3.86001C1.30053 3.8866 1.14994 3.95144 1.02106 4.04897C0.892182 4.1465 0.788863 4.27381 0.719953 4.42001C0.173478 5.59251 -0.0675654 6.88419 0.019245 8.17487C0.106055 9.46556 0.5179 10.7133 1.21647 11.8021C1.91503 12.8908 2.87762 13.7852 4.0147 14.4021C5.15177 15.0189 6.42638 15.3381 7.71995 15.33C8.19019 15.3315 8.65933 15.2846 9.11995 15.19L13.63 19.71C13.7229 19.8037 13.8335 19.8781 13.9554 19.9289C14.0772 19.9797 14.2079 20.0058 14.34 20.0058C14.472 20.0058 14.6027 19.9797 14.7245 19.9289C14.8464 19.8781 14.957 19.8037 15.05 19.71C15.1437 19.617 15.2181 19.5064 15.2688 19.3846C15.3196 19.2627 15.3458 19.132 15.3458 19C15.3458 18.868 15.3196 18.7373 15.2688 18.6154C15.2181 18.4936 15.1437 18.383 15.05 18.29L10.15 13.39C10.0275 13.2684 9.87566 13.1805 9.70918 13.1349C9.54271 13.0894 9.36728 13.0877 9.19995 13.13C8.71713 13.2593 8.21978 13.3265 7.71995 13.33C6.972 13.3366 6.23014 13.1951 5.53709 12.9138C4.84405 12.6324 4.21353 12.2167 3.68184 11.6906C3.15016 11.1645 2.72783 10.5384 2.43917 9.84836C2.15052 9.15832 2.00124 8.41798 1.99995 7.67001C1.99866 7.33502 2.02542 7.00052 2.07995 6.67001L5.99995 10.6C6.09292 10.6937 6.20352 10.7681 6.32538 10.8189C6.44724 10.8697 6.57794 10.8958 6.70995 10.8958C6.84197 10.8958 6.97267 10.8697 7.09453 10.8189C7.21639 10.7681 7.32699 10.6937 7.41995 10.6L10.6 7.39001C10.7802 7.20354 10.8809 6.95434 10.8809 6.695C10.8809 6.43567 10.7802 6.18647 10.6 6.00001L6.70995 2.08001C7.04054 2.02602 7.37499 1.99926 7.70995 2.00001C9.212 2.00265 10.6516 2.6012 11.7128 3.66424C12.774 4.72729 13.37 6.16796 13.37 7.67001C13.3665 8.16983 13.2993 8.66718 13.17 9.15001C13.1276 9.31733 13.1293 9.49276 13.1749 9.65924C13.2204 9.82571 13.3083 9.97756 13.43 10.1L18.33 15C18.5183 15.1883 18.7737 15.2941 19.04 15.2941C19.3063 15.2941 19.5616 15.1883 19.75 15C19.9383 14.8117 20.044 14.5563 20.044 14.29C20.044 14.0237 19.9383 13.7683 19.75 13.58H19.71Z" fill="white"/>
</svg>
