<svg width="84" height="84" viewBox="0 0 84 84" fill="none" xmlns="http://www.w3.org/2000/svg">
<path d="M20.0901 58.5H44.9559C46.0991 58.5 47.0294 57.5746 47.0294 56.4375V30.3125C47.0294 30.2809 47.0156 30.2534 47.0114 30.2231C47.0076 30.1943 47.0016 30.1658 46.9935 30.1379C46.9664 30.0207 46.9081 29.9129 46.8248 29.8258L37.1497 20.2021C37.0401 20.0991 36.9 20.034 36.7502 20.0165C36.7212 20.0137 36.6936 20 36.6618 20H20.0818C18.9345 20 18 20.9254 18 22.0625V56.4375C18 57.5746 18.9372 58.5 20.0901 58.5ZM37.3529 22.3471L44.6697 29.625H38.0441C37.8608 29.625 37.685 29.5526 37.5554 29.4236C37.4258 29.2947 37.3529 29.1198 37.3529 28.9375V22.3471ZM19.3824 22.0625C19.3824 21.683 19.6961 21.375 20.0818 21.375H35.9706V28.9375C35.9706 30.0746 36.9009 31 38.0441 31H45.6471V56.4375C45.6471 56.6198 45.5742 56.7947 45.4446 56.9236C45.315 57.0526 45.1392 57.125 44.9559 57.125H20.0901C19.9983 57.1261 19.9071 57.1092 19.8218 57.0752C19.7365 57.0412 19.6588 56.9909 19.5931 56.9271C19.5274 56.8632 19.4749 56.7871 19.4388 56.7031C19.4026 56.6191 19.3834 56.5289 19.3824 56.4375V22.0625Z" fill="black"/>
<path d="M24.2206 36.5H40.8088C40.9921 36.5 41.1679 36.4276 41.2976 36.2986C41.4272 36.1697 41.5 35.9948 41.5 35.8125C41.5 35.6302 41.4272 35.4553 41.2976 35.3264C41.1679 35.1974 40.9921 35.125 40.8088 35.125H24.2206C24.0373 35.125 23.8615 35.1974 23.7319 35.3264C23.6022 35.4553 23.5294 35.6302 23.5294 35.8125C23.5294 35.9948 23.6022 36.1697 23.7319 36.2986C23.8615 36.4276 24.0373 36.5 24.2206 36.5Z" fill="black"/>
<path d="M24.2206 42H40.8088C40.9921 42 41.1679 41.9276 41.2976 41.7986C41.4272 41.6697 41.5 41.4948 41.5 41.3125C41.5 41.1302 41.4272 40.9553 41.2976 40.8264C41.1679 40.6974 40.9921 40.625 40.8088 40.625H24.2206C24.0373 40.625 23.8615 40.6974 23.7319 40.8264C23.6022 40.9553 23.5294 41.1302 23.5294 41.3125C23.5294 41.4948 23.6022 41.6697 23.7319 41.7986C23.8615 41.9276 24.0373 42 24.2206 42Z" fill="black"/>
<path d="M24.2206 31H31.1324C31.3157 31 31.4915 30.9276 31.6211 30.7986C31.7507 30.6697 31.8235 30.4948 31.8235 30.3125C31.8235 30.1302 31.7507 29.9553 31.6211 29.8264C31.4915 29.6974 31.3157 29.625 31.1324 29.625H24.2206C24.0373 29.625 23.8615 29.6974 23.7319 29.8264C23.6022 29.9553 23.5294 30.1302 23.5294 30.3125C23.5294 30.4948 23.6022 30.6697 23.7319 30.7986C23.8615 30.9276 24.0373 31 24.2206 31Z" fill="black"/>
<path d="M24.2206 47.5H40.8088C40.9921 47.5 41.1679 47.4276 41.2976 47.2986C41.4272 47.1697 41.5 46.9948 41.5 46.8125C41.5 46.6302 41.4272 46.4553 41.2976 46.3264C41.1679 46.1974 40.9921 46.125 40.8088 46.125H24.2206C24.0373 46.125 23.8615 46.1974 23.7319 46.3264C23.6022 46.4553 23.5294 46.6302 23.5294 46.8125C23.5294 46.9948 23.6022 47.1697 23.7319 47.2986C23.8615 47.4276 24.0373 47.5 24.2206 47.5Z" fill="black"/>
<path d="M24.2206 53H40.8088C40.9921 53 41.1679 52.9276 41.2976 52.7986C41.4272 52.6697 41.5 52.4948 41.5 52.3125C41.5 52.1302 41.4272 51.9553 41.2976 51.8264C41.1679 51.6974 40.9921 51.625 40.8088 51.625H24.2206C24.0373 51.625 23.8615 51.6974 23.7319 51.8264C23.6022 51.9553 23.5294 52.1302 23.5294 52.3125C23.5294 52.4948 23.6022 52.6697 23.7319 52.7986C23.8615 52.9276 24.0373 53 24.2206 53Z" fill="black"/>
<path d="M47.7206 26.875H53.9412V34.4375C53.9412 35.5746 54.8715 36.5 56.0147 36.5H63.6176V61.9375C63.6176 62.1198 63.5448 62.2947 63.4152 62.4236C63.2856 62.5526 63.1098 62.625 62.9265 62.625H38.0607C37.9688 62.6261 37.8777 62.6092 37.7924 62.5752C37.7071 62.5412 37.6294 62.4909 37.5637 62.4271C37.4979 62.3632 37.4455 62.2871 37.4093 62.2031C37.3732 62.1191 37.354 62.0289 37.3529 61.9375V60.5625C37.3529 60.3802 37.2801 60.2053 37.1505 60.0764C37.0209 59.9474 36.8451 59.875 36.6618 59.875C36.4785 59.875 36.3026 59.9474 36.173 60.0764C36.0434 60.2053 35.9706 60.3802 35.9706 60.5625V61.9375C35.9706 63.0746 36.9078 64 38.0607 64H62.9265C64.0697 64 65 63.0746 65 61.9375V35.8125C65 35.7809 64.9862 35.7534 64.982 35.7231C64.9782 35.6943 64.9722 35.6658 64.9641 35.6379C64.937 35.5207 64.8787 35.4129 64.7954 35.3258L55.1203 25.7021C55.0114 25.5983 54.8709 25.5334 54.7208 25.5179C54.6918 25.5138 54.6641 25.5 54.6324 25.5H47.7206C47.5373 25.5 47.3615 25.5724 47.2319 25.7014C47.1022 25.8303 47.0294 26.0052 47.0294 26.1875C47.0294 26.3698 47.1022 26.5447 47.2319 26.6736C47.3615 26.8026 47.5373 26.875 47.7206 26.875ZM56.0147 35.125C55.8314 35.125 55.6556 35.0526 55.526 34.9236C55.3963 34.7947 55.3235 34.6198 55.3235 34.4375V27.8471L62.6403 35.125H56.0147Z" fill="black"/>
<path d="M50.4853 42H58.7794C58.9627 42 59.1385 41.9276 59.2681 41.7986C59.3978 41.6697 59.4706 41.4948 59.4706 41.3125C59.4706 41.1302 59.3978 40.9553 59.2681 40.8264C59.1385 40.6974 58.9627 40.625 58.7794 40.625H50.4853C50.302 40.625 50.1262 40.6974 49.9966 40.8264C49.8669 40.9553 49.7941 41.1302 49.7941 41.3125C49.7941 41.4948 49.8669 41.6697 49.9966 41.7986C50.1262 41.9276 50.302 42 50.4853 42Z" fill="black"/>
<path d="M50.4853 47.5H58.7794C58.9627 47.5 59.1385 47.4276 59.2681 47.2986C59.3978 47.1697 59.4706 46.9948 59.4706 46.8125C59.4706 46.6302 59.3978 46.4553 59.2681 46.3264C59.1385 46.1974 58.9627 46.125 58.7794 46.125H50.4853C50.302 46.125 50.1262 46.1974 49.9966 46.3264C49.8669 46.4553 49.7941 46.6302 49.7941 46.8125C49.7941 46.9948 49.8669 47.1697 49.9966 47.2986C50.1262 47.4276 50.302 47.5 50.4853 47.5Z" fill="black"/>
<path d="M50.4853 53H58.7794C58.9627 53 59.1385 52.9276 59.2681 52.7986C59.3978 52.6697 59.4706 52.4948 59.4706 52.3125C59.4706 52.1302 59.3978 51.9553 59.2681 51.8264C59.1385 51.6974 58.9627 51.625 58.7794 51.625H50.4853C50.302 51.625 50.1262 51.6974 49.9966 51.8264C49.8669 51.9553 49.7941 52.1302 49.7941 52.3125C49.7941 52.4948 49.8669 52.6697 49.9966 52.7986C50.1262 52.9276 50.302 53 50.4853 53Z" fill="black"/>
<path d="M50.4853 58.5H58.7794C58.9627 58.5 59.1385 58.4276 59.2681 58.2986C59.3978 58.1697 59.4706 57.9948 59.4706 57.8125C59.4706 57.6302 59.3978 57.4553 59.2681 57.3264C59.1385 57.1974 58.9627 57.125 58.7794 57.125H50.4853C50.302 57.125 50.1262 57.1974 49.9966 57.3264C49.8669 57.4553 49.7941 57.6302 49.7941 57.8125C49.7941 57.9948 49.8669 58.1697 49.9966 58.2986C50.1262 58.4276 50.302 58.5 50.4853 58.5Z" fill="black"/>
<circle cx="42" cy="42" r="41" stroke="#444444" stroke-width="2"/>
</svg>
