<svg width="28" height="28" viewBox="0 0 28 28" fill="none" xmlns="http://www.w3.org/2000/svg">
<path d="M18.298 0H9.702C1.85733 0 0 1.85733 0 9.702V18.298C0 26.1427 1.85733 28 9.702 28H18.298C26.1427 28 28 26.1427 28 18.298V9.702C28 1.85733 26.1228 0 18.298 0ZM22.6053 19.9768H20.5707C19.8007 19.9768 19.5627 19.3643 18.179 17.962C16.9738 16.7953 16.4407 16.6378 16.1443 16.6378C15.729 16.6378 15.61 16.7568 15.61 17.3297V19.1672C15.61 19.6618 15.4525 19.9582 14.1482 19.9582C11.9945 19.9582 9.60283 18.6538 7.924 16.2225C5.39467 12.6665 4.70167 9.99833 4.70167 9.44533C4.70167 9.149 4.82067 8.8725 5.3935 8.8725H7.42817C7.9415 8.8725 8.13983 9.10933 8.33817 9.66233C9.345 12.5673 11.025 15.1165 11.7168 15.1165C11.9735 15.1165 12.0925 14.9975 12.0925 14.3465V11.3412C12.0132 9.9575 11.2817 9.83967 11.2817 9.34617C11.2817 9.10817 11.48 8.87133 11.795 8.87133H14.9963C15.4315 8.87133 15.589 9.10817 15.589 9.6215V13.6733C15.589 14.1073 15.7873 14.266 15.9052 14.266C16.1618 14.266 16.38 14.1073 16.8537 13.6337C18.3167 11.9933 19.3632 9.464 19.3632 9.464C19.502 9.16767 19.7388 8.89117 20.2533 8.89117H22.288C22.9005 8.89117 23.0393 9.20617 22.9005 9.64133C22.6438 10.8278 20.1542 14.3442 20.1542 14.3442C19.9372 14.7 19.8578 14.8575 20.1542 15.2542C20.3712 15.5505 21.0828 16.163 21.5577 16.716C22.4268 17.7042 23.0977 18.5337 23.2762 19.1077C23.4745 19.6793 23.177 19.9757 22.6042 19.9757L22.6053 19.9768Z" fill="#444444"/>
</svg>
