<svg width="69" height="40" viewBox="0 0 69 40" fill="none" xmlns="http://www.w3.org/2000/svg">
<path d="M55.2751 0.0144308H52.4608L44.7973 13.3064L37.1194 0H13.1332C5.88831 0 0 5.88831 0 13.1332C0 20.3782 5.88831 26.2665 13.1332 26.2665C15.9186 26.2665 18.5742 25.3861 20.7823 23.7986L19.1514 20.9699C17.434 22.2832 15.3269 23.0192 13.1332 23.0192C7.67789 23.0192 3.24723 18.5886 3.24723 13.1332C3.24723 7.67789 7.67789 3.24723 13.1332 3.24723H27.9262V26.2665H31.1734V3.2328H35.2288L42.9067 16.5392L38.707 23.8274L40.1069 26.2665H67.6001L69 23.8274L55.2751 0.0144308ZM42.9212 23.0192L53.8607 4.06986L64.8003 23.0192H42.9212Z" fill="#444444"/>
<path d="M26.5695 29.7739C23.914 29.7739 21.7492 31.9387 21.7492 34.5943C21.7492 37.2498 23.914 39.4146 26.5695 39.4146C29.225 39.4146 31.3899 37.2498 31.3899 34.5943C31.3899 31.9387 29.225 29.7739 26.5695 29.7739ZM26.5695 37.4374C24.9964 37.4374 23.7264 36.1674 23.7264 34.5943C23.7264 33.0212 24.9964 31.7511 26.5695 31.7511C28.1426 31.7511 29.4127 33.0212 29.4127 34.5943C29.4127 36.1674 28.1282 37.4374 26.5695 37.4374Z" fill="#444444"/>
<path d="M17.7659 31.7511C18.603 31.7511 19.3968 32.1264 19.9452 32.7614L21.4606 31.4913C20.5369 30.3945 19.1947 29.7739 17.7659 29.7739C15.1104 29.7739 12.9456 31.9387 12.9456 34.5943C12.9456 37.2498 15.1104 39.4146 17.7659 39.4146C19.1947 39.4146 20.5369 38.794 21.4606 37.6972L19.9452 36.4271C19.3968 37.0766 18.603 37.4374 17.7659 37.4374C16.1928 37.4374 14.9228 36.1674 14.9228 34.5943C14.9228 33.0212 16.1928 31.7511 17.7659 31.7511Z" fill="#444444"/>
<path d="M50.4114 29.7739V31.7511H52.5907L52.5618 37.4374V39.4146H54.5679V31.7511H56.7471V29.7739H50.4114Z" fill="#444444"/>
<path d="M39.2554 32.4729C39.2554 30.9864 38.0431 29.7886 36.5566 29.7886H32.3857V39.4292H36.5566C38.3029 39.4292 39.7172 38.0149 39.7172 36.2686C39.7172 35.4027 39.3564 34.5945 38.7647 34.0172C39.0822 33.5554 39.2554 33.0358 39.2554 32.4729ZM34.3773 31.7513H36.571C36.9607 31.7513 37.2926 32.0688 37.2926 32.4729C37.2926 32.8049 37.0761 33.0791 36.7586 33.1657L34.3917 33.7718V31.7513H34.3773ZM36.571 37.4376H34.3773V35.8068L36.9751 35.1429C37.4369 35.3161 37.7544 35.749 37.7544 36.2542C37.7544 36.9036 37.2204 37.4376 36.571 37.4376Z" fill="#444444"/>
<path d="M45.4612 29.7739C43.6572 29.7739 42.0985 30.7553 41.2759 32.2274C40.8862 32.9346 40.6553 33.7283 40.6553 34.5943C40.6553 37.2498 42.8057 39.4146 45.4756 39.4146C47.2796 39.4146 48.8383 38.4332 49.661 36.9611L47.9435 35.9942C47.4528 36.8601 46.5292 37.4374 45.4756 37.4374C44.5953 37.4374 43.8015 37.0333 43.282 36.3983L50.296 34.4499C50.1949 31.8522 48.0734 29.7739 45.4612 29.7739ZM42.6181 34.5221C42.6325 34.0458 42.7624 33.5984 42.9789 33.1943C43.4696 32.3284 44.3932 31.7511 45.4468 31.7511C46.457 31.7511 47.3374 32.2707 47.8425 33.0644L42.6181 34.5221Z" fill="#444444"/>
</svg>
