<svg width="5" height="7" viewBox="0 0 5 7" fill="none" xmlns="http://www.w3.org/2000/svg">
<path d="M2.41461 1.00568C2.18234 1.00568 1.95529 1.07455 1.76216 1.20359C1.56904 1.33264 1.41851 1.51605 1.32963 1.73064C1.24074 1.94523 1.21749 2.18135 1.2628 2.40916C1.30811 2.63697 1.41996 2.84622 1.5842 3.01046C1.74844 3.1747 1.95769 3.28655 2.1855 3.33186C2.41331 3.37718 2.64944 3.35392 2.86402 3.26503C3.07861 3.17615 3.26203 3.02563 3.39107 2.8325C3.52011 2.63938 3.58899 2.41232 3.58899 2.18005C3.58899 1.86859 3.46526 1.56988 3.24502 1.34964C3.02478 1.1294 2.72607 1.00568 2.41461 1.00568ZM2.41461 2.94452C2.26341 2.94452 2.11561 2.89969 1.98989 2.81569C1.86418 2.73169 1.76619 2.61229 1.70833 2.4726C1.65047 2.33291 1.63533 2.1792 1.66483 2.03091C1.69433 1.88262 1.76713 1.7464 1.87405 1.63949C1.98096 1.53258 2.11718 1.45977 2.26547 1.43027C2.41376 1.40077 2.56747 1.41591 2.70716 1.47377C2.84685 1.53163 2.96624 1.62962 3.05025 1.75533C3.13425 1.88105 3.17908 2.02885 3.17908 2.18005C3.17854 2.38245 3.09776 2.57637 2.95445 2.71929C2.81114 2.86221 2.61701 2.94247 2.41461 2.94247V2.94452Z" fill="white"/>
<path d="M2.41434 0.0383301C1.77595 0.0388633 1.16372 0.291997 0.711349 0.742442C0.258984 1.19289 0.00324856 1.80404 0 2.44242C0 3.39954 0.536975 4.20091 0.930483 4.78502L1.00222 4.8916C1.39373 5.45903 1.81374 6.00627 2.26062 6.53121L2.41639 6.71362L2.57215 6.53121C3.01898 6.00623 3.43898 5.45899 3.83056 4.8916L3.90229 4.78297C4.29375 4.19886 4.83072 3.39954 4.83072 2.44242C4.82747 1.80369 4.57145 1.19222 4.11865 0.74172C3.66584 0.291216 3.05308 0.0383218 2.41434 0.0383301ZM3.56002 4.54728L3.48624 4.6559C3.13372 5.18468 2.66643 5.77699 2.41434 6.07007C2.17249 5.77699 1.69495 5.18468 1.34244 4.6559L1.2707 4.54728C0.907938 4.0062 0.409904 3.26633 0.409904 2.43422C0.409904 2.17099 0.461751 1.91035 0.562483 1.66716C0.663215 1.42397 0.81086 1.203 0.996989 1.01687C1.18312 0.830744 1.40408 0.683099 1.64727 0.582367C1.89046 0.481635 2.15111 0.429789 2.41434 0.429789C2.67756 0.429789 2.93821 0.481635 3.1814 0.582367C3.42459 0.683099 3.64556 0.830744 3.83168 1.01687C4.01781 1.203 4.16546 1.42397 4.26619 1.66716C4.36692 1.91035 4.41877 2.17099 4.41877 2.43422C4.41877 3.27452 3.92278 4.0144 3.56002 4.54728Z" fill="white"/>
</svg>
