<svg width="37" height="37" viewBox="0 0 37 37" fill="none" xmlns="http://www.w3.org/2000/svg">
<path d="M25.4375 13.875C25.4375 15.7149 24.7066 17.4795 23.4056 18.7806C22.1045 20.0816 20.3399 20.8125 18.5 20.8125C16.6601 20.8125 14.8955 20.0816 13.5944 18.7806C12.2934 17.4795 11.5625 15.7149 11.5625 13.875C11.5625 12.0351 12.2934 10.2705 13.5944 8.96945C14.8955 7.66841 16.6601 6.9375 18.5 6.9375C20.3399 6.9375 22.1045 7.66841 23.4056 8.96945C24.7066 10.2705 25.4375 12.0351 25.4375 13.875Z" fill="#444444"/>
<path fill-rule="evenodd" clip-rule="evenodd" d="M0 18.5C0 13.5935 1.9491 8.88795 5.41852 5.41852C8.88795 1.9491 13.5935 0 18.5 0C23.4065 0 28.1121 1.9491 31.5815 5.41852C35.0509 8.88795 37 13.5935 37 18.5C37 23.4065 35.0509 28.1121 31.5815 31.5815C28.1121 35.0509 23.4065 37 18.5 37C13.5935 37 8.88795 35.0509 5.41852 31.5815C1.9491 28.1121 0 23.4065 0 18.5ZM18.5 2.3125C15.4516 2.31266 12.4652 3.17359 9.88456 4.79619C7.30389 6.41879 5.23384 8.73711 3.91267 11.4843C2.59149 14.2315 2.07289 17.296 2.41656 20.3249C2.76022 23.3539 3.95218 26.2242 5.85525 28.6056C7.49713 25.9601 11.1116 23.125 18.5 23.125C25.8884 23.125 29.5006 25.9578 31.1448 28.6056C33.0478 26.2242 34.2398 23.3539 34.5834 20.3249C34.9271 17.296 34.4085 14.2315 33.0873 11.4843C31.7662 8.73711 29.6961 6.41879 27.1154 4.79619C24.5348 3.17359 21.5484 2.31266 18.5 2.3125Z" fill="#444444"/>
</svg>
