<svg width="116" height="67" viewBox="0 0 116 67" fill="none" xmlns="http://www.w3.org/2000/svg">
<path d="M92.8461 0.0242396H88.1189L75.2465 22.3509L62.3499 0H22.06C9.89065 0 0 9.89065 0 22.06C0 34.2294 9.89065 44.1201 22.06 44.1201C26.7387 44.1201 31.1992 42.6413 34.9082 39.9747L32.1689 35.2233C29.2841 37.4293 25.7448 38.6657 22.06 38.6657C12.8966 38.6657 5.4544 31.2234 5.4544 22.06C5.4544 12.8966 12.8966 5.4544 22.06 5.4544H46.9079V44.1201H52.3623V5.43016H59.1742L72.0709 27.7811L65.0165 40.0232L67.368 44.1201H113.549L115.9 40.0232L92.8461 0.0242396ZM72.0951 38.6657L90.4704 6.83619L108.846 38.6657H72.0951Z" fill="#444444"/>
<path d="M44.6291 50.0108C40.1686 50.0108 36.5324 53.6471 36.5324 58.1076C36.5324 62.5681 40.1686 66.2044 44.6291 66.2044C49.0896 66.2044 52.7259 62.5681 52.7259 58.1076C52.7259 53.6471 49.0896 50.0108 44.6291 50.0108ZM44.6291 62.8832C41.9868 62.8832 39.8535 60.7499 39.8535 58.1076C39.8535 55.4652 41.9868 53.332 44.6291 53.332C47.2715 53.332 49.4048 55.4652 49.4048 58.1076C49.4048 60.7499 47.2473 62.8832 44.6291 62.8832Z" fill="#444444"/>
<path d="M29.8417 53.332C31.2477 53.332 32.581 53.9622 33.5022 55.0289L36.0476 52.8956C34.4961 51.0532 32.2416 50.0108 29.8417 50.0108C25.3812 50.0108 21.7449 53.6471 21.7449 58.1076C21.7449 62.5681 25.3812 66.2044 29.8417 66.2044C32.2416 66.2044 34.4961 65.162 36.0476 63.3196L33.5022 61.1863C32.581 62.2772 31.2477 62.8832 29.8417 62.8832C27.1993 62.8832 25.066 60.7499 25.066 58.1076C25.066 55.4652 27.1993 53.332 29.8417 53.332Z" fill="#444444"/>
<path d="M84.6766 50.0108V53.332H88.3371L88.2886 62.8832V66.2044H91.6582V53.332H95.3188V50.0108H84.6766Z" fill="#444444"/>
<path d="M65.9377 54.544C65.9377 52.0471 63.9014 50.0351 61.4045 50.0351H54.3986V66.2286H61.4045C64.3377 66.2286 66.7134 63.8529 66.7134 60.9196C66.7134 59.4651 66.1074 58.1076 65.1135 57.1379C65.6468 56.3622 65.9377 55.4895 65.9377 54.544ZM57.744 53.3319H61.4287C62.0832 53.3319 62.6408 53.8653 62.6408 54.544C62.6408 55.1016 62.2772 55.5622 61.7439 55.7076L57.7682 56.7258V53.3319H57.744ZM61.4287 62.8832H57.744V60.1439L62.1075 59.0288C62.8832 59.3197 63.4165 60.0469 63.4165 60.8954C63.4165 61.9863 62.5196 62.8832 61.4287 62.8832Z" fill="#444444"/>
<path d="M76.3617 50.0108C73.3315 50.0108 70.7133 51.6593 69.3316 54.1319C68.677 55.3198 68.2892 56.6531 68.2892 58.1076C68.2892 62.5681 71.9012 66.2044 76.3859 66.2044C79.4161 66.2044 82.0343 64.5559 83.416 62.0832L80.5313 60.4591C79.707 61.9136 78.1556 62.8832 76.3859 62.8832C74.9072 62.8832 73.5739 62.2045 72.7012 61.1378L84.4827 57.8652C84.313 53.5017 80.7494 50.0108 76.3617 50.0108ZM71.586 57.9864C71.6103 57.1864 71.8285 56.4349 72.1921 55.7561C73.0163 54.3016 74.5678 53.332 76.3374 53.332C78.0344 53.332 79.5131 54.2047 80.3616 55.538L71.586 57.9864Z" fill="#444444"/>
</svg>
