<svg width="22" height="22" viewBox="0 0 22 22" fill="none" xmlns="http://www.w3.org/2000/svg">
<path d="M12.4842 2.269C12.4842 1.568 11.9406 1 11.2698 1H9.87157C9.19974 1 8.65615 1.568 8.65615 2.269C8.65615 2.847 8.27717 3.343 7.76134 3.555C7.67999 3.589 7.59865 3.625 7.51921 3.661C7.01104 3.891 6.40716 3.821 6.01478 3.412C5.78705 3.17421 5.47828 3.04064 5.15633 3.04064C4.83439 3.04064 4.52562 3.17421 4.29789 3.412L3.30833 4.446C3.08076 4.68396 2.95293 5.0066 2.95293 5.343C2.95293 5.6794 3.08076 6.00204 3.30833 6.24V6.24C3.70071 6.65 3.7677 7.28 3.54567 7.812C3.51079 7.89572 3.47729 7.98007 3.44518 8.065C3.2423 8.604 2.76761 9 2.21446 9C1.54359 9 1 9.568 1 10.269V11.731C1 12.432 1.54359 13 2.21446 13C2.76761 13 3.2423 13.396 3.44518 13.935C3.47772 14.02 3.51217 14.105 3.54567 14.188C3.76674 14.719 3.69975 15.35 3.30833 15.76C3.08076 15.998 2.95293 16.3206 2.95293 16.657C2.95293 16.9934 3.08076 17.316 3.30833 17.554L4.29789 18.588C4.52562 18.8258 4.83439 18.9594 5.15633 18.9594C5.47828 18.9594 5.78705 18.8258 6.01478 18.588C6.40716 18.178 7.01008 18.108 7.51921 18.339C7.59865 18.376 7.67999 18.411 7.76134 18.445C8.27717 18.657 8.65615 19.153 8.65615 19.731C8.65615 20.432 9.19974 21 9.87061 21H11.2698C11.9406 21 12.4842 20.432 12.4842 19.731C12.4842 19.153 12.8632 18.657 13.379 18.444C13.4604 18.411 13.5417 18.376 13.6212 18.34C14.1293 18.108 14.7332 18.179 15.1246 18.588C15.2374 18.7059 15.3713 18.7994 15.5187 18.8632C15.6661 18.927 15.824 18.9599 15.9836 18.9599C16.1431 18.9599 16.3011 18.927 16.4484 18.8632C16.5958 18.7994 16.7297 18.7059 16.8425 18.588L17.8321 17.554C18.0596 17.316 18.1875 16.9934 18.1875 16.657C18.1875 16.3206 18.0596 15.998 17.8321 15.76V15.76C17.4397 15.35 17.3727 14.72 17.5938 14.188C17.6292 14.105 17.6627 14.02 17.6952 13.935C17.8981 13.396 18.3728 13 18.9259 13C19.5968 13 20.1404 12.432 20.1404 11.731V10.27C20.1404 9.569 19.5968 9.001 18.9259 9.001C18.3728 9.001 17.8981 8.605 17.6942 8.066C17.6622 7.98106 17.6287 7.89671 17.5938 7.813C17.3736 7.282 17.4406 6.651 17.8321 6.241C18.0596 6.00304 18.1875 5.6804 18.1875 5.344C18.1875 5.0076 18.0596 4.68496 17.8321 4.447L16.8425 3.413C16.6148 3.17521 16.306 3.04164 15.984 3.04164C15.6621 3.04164 15.3533 3.17521 15.1256 3.413V3.413C14.7332 3.823 14.1303 3.893 13.6212 3.662C13.5411 3.62521 13.4603 3.58987 13.379 3.556C12.8632 3.343 12.4842 2.847 12.4842 2.27V2.269Z" stroke="white" stroke-width="2"/>
<path d="M14.3983 11C14.3983 12.0609 13.995 13.0783 13.2771 13.8284C12.5592 14.5786 11.5855 15 10.5703 15C9.55499 15 8.58131 14.5786 7.8634 13.8284C7.1455 13.0783 6.74219 12.0609 6.74219 11C6.74219 9.93913 7.1455 8.92172 7.8634 8.17157C8.58131 7.42143 9.55499 7 10.5703 7C11.5855 7 12.5592 7.42143 13.2771 8.17157C13.995 8.92172 14.3983 9.93913 14.3983 11V11Z" stroke="white" stroke-width="2"/>
</svg>
